<svg width="23" height="24" viewBox="0 0 23 24" fill="none" xmlns="http://www.w3.org/2000/svg">
<circle cx="16.868" cy="6.29451" r="1.33333" fill="black"/>
<path fill-rule="evenodd" clip-rule="evenodd" d="M5.55566 11.9999C5.55566 15.0638 8.04733 17.5554 11.1112 17.5554C14.1751 17.5554 16.6668 15.0638 16.6668 11.9999C16.6668 8.936 14.1751 6.44434 11.1112 6.44434C8.04733 6.44434 5.55566 8.936 5.55566 11.9999ZM8.33346 11.9999C8.33346 10.4679 9.57929 9.2221 11.1112 9.2221C12.6432 9.2221 13.889 10.4679 13.889 11.9999C13.889 13.5318 12.6432 14.7777 11.1112 14.7777C9.57929 14.7777 8.33346 13.5318 8.33346 11.9999Z" fill="black"/>
<path fill-rule="evenodd" clip-rule="evenodd" d="M5.55556 23.1111H16.6667C19.5222 23.1111 22.2222 20.4111 22.2222 17.5556V6.44447C22.2222 3.58892 19.5222 0.888916 16.6667 0.888916H5.55556C2.7 0.888916 0 3.58892 0 6.44447V17.5556C0 20.4111 2.7 23.1111 5.55556 23.1111ZM2.77778 6.44444C2.77778 5.14583 4.25694 3.66667 5.55556 3.66667H16.6667C17.9653 3.66667 19.4444 5.14583 19.4444 6.44444V17.5556C19.4444 18.8542 17.9653 20.3333 16.6667 20.3333H5.55556C4.23194 20.3333 2.77778 18.8792 2.77778 17.5556V6.44444Z" fill="black"/>
</svg>
