<svg width="319" height="271" viewBox="0 0 319 271" fill="none" xmlns="http://www.w3.org/2000/svg">
<g clip-path="url(#clip0_21_86)">
<mask id="mask0_21_86" style="mask-type:luminance" maskUnits="userSpaceOnUse" x="83" y="242" width="30" height="29">
<path d="M107.915 270.593L104.874 263.753H91.0738L88.034 270.593H83.5536L96.0342 242.592H100.035L112.515 270.593H107.915ZM97.9943 247.152L92.2741 260.273H103.635L97.9943 247.152Z" fill="white"/>
</mask>
<g mask="url(#mask0_21_86)">
<path d="M112.515 242.592H83.5536V270.593H112.515V242.592Z" fill="url(#paint0_linear_21_86)"/>
</g>
<mask id="mask1_21_86" style="mask-type:luminance" maskUnits="userSpaceOnUse" x="116" y="248" width="13" height="23">
<path d="M123.495 249.912C122.148 250.739 121.142 251.832 120.475 253.192L120.275 249.072H116.515V270.593H120.635V259.793C120.635 258.646 120.815 257.639 121.175 256.772C121.535 255.906 122.029 255.179 122.655 254.592C123.282 254.006 124.015 253.566 124.855 253.272C125.695 252.979 126.608 252.832 127.596 252.832H128.275V248.672C126.436 248.672 124.841 249.086 123.495 249.912Z" fill="white"/>
</mask>
<g mask="url(#mask1_21_86)">
<path d="M128.275 248.672H116.515V270.593H128.275V248.672Z" fill="url(#paint1_linear_21_86)"/>
</g>
<mask id="mask2_21_86" style="mask-type:luminance" maskUnits="userSpaceOnUse" x="132" y="241" width="5" height="30">
<path d="M132.515 270.593H136.635V249.073H132.515V270.593ZM132.355 245.552H136.795V241.072H132.355V245.552Z" fill="white"/>
</mask>
<g mask="url(#mask2_21_86)">
<path d="M136.795 241.072H132.355V270.593H136.795V241.072Z" fill="url(#paint2_linear_21_86)"/>
</g>
<mask id="mask3_21_86" style="mask-type:luminance" maskUnits="userSpaceOnUse" x="141" y="249" width="20" height="22">
<path d="M142.435 249.072V252.272H155.596L141.875 266.873V270.593H159.916V267.393H146.635L160.316 252.832V249.072H142.435Z" fill="white"/>
</mask>
<g mask="url(#mask3_21_86)">
<path d="M160.316 249.072H141.875V270.593H160.316V249.072Z" fill="url(#paint3_linear_21_86)"/>
</g>
<mask id="mask4_21_86" style="mask-type:luminance" maskUnits="userSpaceOnUse" x="163" y="248" width="24" height="23">
<path d="M171.937 266.893C171.017 266.507 170.223 265.973 169.557 265.293C168.89 264.613 168.377 263.82 168.017 262.913C167.657 262.007 167.477 261.033 167.477 259.993V259.752C167.477 258.713 167.657 257.732 168.017 256.812C168.377 255.892 168.883 255.092 169.537 254.412C170.19 253.733 170.977 253.192 171.897 252.792C172.817 252.392 173.837 252.192 174.957 252.192C176.05 252.192 177.044 252.379 177.937 252.752C178.83 253.126 179.611 253.646 180.277 254.312C180.944 254.979 181.457 255.78 181.817 256.713C182.177 257.646 182.357 258.673 182.357 259.793V259.953C182.357 260.993 182.177 261.973 181.817 262.893C181.457 263.813 180.95 264.613 180.297 265.293C179.644 265.973 178.87 266.507 177.977 266.893C177.083 267.28 176.09 267.473 174.997 267.473C173.877 267.473 172.857 267.28 171.937 266.893ZM174.917 248.672C173.237 248.672 171.69 248.959 170.277 249.532C168.863 250.106 167.643 250.892 166.617 251.892C165.59 252.892 164.79 254.052 164.217 255.373C163.643 256.692 163.357 258.1 163.357 259.593V260.072C163.357 261.566 163.643 262.98 164.217 264.313C164.79 265.647 165.59 266.807 166.617 267.793C167.643 268.78 168.863 269.56 170.277 270.133C171.69 270.706 173.237 270.993 174.917 270.993H175.037C176.718 270.993 178.257 270.706 179.657 270.133C181.057 269.56 182.271 268.78 183.297 267.793C184.324 266.807 185.124 265.647 185.697 264.313C186.27 262.98 186.558 261.566 186.558 260.072V259.633C186.558 258.06 186.27 256.606 185.697 255.272C185.124 253.939 184.331 252.779 183.318 251.792C182.304 250.806 181.097 250.039 179.698 249.492C178.297 248.946 176.77 248.672 175.117 248.672H174.917Z" fill="white"/>
</mask>
<g mask="url(#mask4_21_86)">
<path d="M186.558 248.672H163.357V270.993H186.558V248.672Z" fill="url(#paint4_linear_21_86)"/>
</g>
<mask id="mask5_21_86" style="mask-type:luminance" maskUnits="userSpaceOnUse" x="192" y="248" width="20" height="23">
<path d="M203.358 248.672C201.678 248.672 200.218 249.012 198.977 249.692C197.737 250.372 196.771 251.219 196.078 252.232L195.917 249.072H192.157V270.593H196.277V258.193C196.277 257.286 196.417 256.459 196.698 255.713C196.977 254.966 197.371 254.332 197.878 253.812C198.384 253.292 198.99 252.892 199.698 252.612C200.404 252.332 201.171 252.192 201.998 252.192C203.598 252.192 204.898 252.666 205.898 253.612C206.898 254.559 207.398 255.992 207.398 257.913V270.593H211.558V256.873C211.558 255.646 211.371 254.526 210.998 253.512C210.624 252.499 210.091 251.632 209.398 250.912C208.704 250.192 207.865 249.639 206.878 249.252C205.891 248.866 204.784 248.672 203.558 248.672H203.358Z" fill="white"/>
</mask>
<g mask="url(#mask5_21_86)">
<path d="M211.558 248.672H192.157V270.593H211.558V248.672Z" fill="url(#paint5_linear_21_86)"/>
</g>
<mask id="mask6_21_86" style="mask-type:luminance" maskUnits="userSpaceOnUse" x="216" y="248" width="21" height="23">
<path d="M223.838 267.793C223.304 267.66 222.831 267.447 222.418 267.153C222.004 266.86 221.671 266.486 221.418 266.033C221.164 265.58 221.038 265.02 221.038 264.353C221.038 263.206 221.498 262.313 222.418 261.673C223.338 261.033 224.624 260.646 226.278 260.513L232.559 259.913V261.953C232.532 262.966 232.292 263.853 231.839 264.613C231.385 265.373 230.819 266 230.138 266.493C229.459 266.986 228.705 267.36 227.879 267.613C227.051 267.867 226.252 267.993 225.478 267.993C224.918 267.993 224.371 267.927 223.838 267.793ZM221.978 249.312C220.311 249.739 219.024 250.179 218.118 250.632L219.198 253.632C219.571 253.419 220.024 253.219 220.558 253.032C221.091 252.846 221.678 252.672 222.318 252.512C222.959 252.352 223.618 252.226 224.298 252.132C224.978 252.039 225.638 251.992 226.278 251.992H226.478C227.278 251.992 228.044 252.046 228.778 252.152C229.511 252.259 230.159 252.459 230.719 252.752C231.279 253.046 231.725 253.439 232.059 253.932C232.392 254.426 232.559 255.072 232.559 255.873V257.432L225.318 258.033C222.331 258.299 220.124 259.033 218.698 260.233C217.271 261.432 216.558 262.94 216.558 264.753V264.873C216.558 265.833 216.744 266.686 217.118 267.433C217.491 268.18 217.998 268.82 218.638 269.353C219.278 269.887 220.038 270.293 220.918 270.573C221.798 270.853 222.731 270.993 223.718 270.993H223.958C224.704 270.993 225.478 270.919 226.278 270.773C227.079 270.626 227.858 270.393 228.618 270.073C229.378 269.753 230.105 269.347 230.799 268.853C231.492 268.36 232.092 267.767 232.598 267.073L232.918 270.593H236.719V255.833C236.719 254.419 236.479 253.252 235.999 252.332C235.519 251.413 234.865 250.686 234.039 250.152C233.212 249.619 232.239 249.239 231.119 249.012C229.998 248.786 228.784 248.672 227.478 248.672C225.478 248.672 223.644 248.886 221.978 249.312Z" fill="white"/>
</mask>
<g mask="url(#mask6_21_86)">
<path d="M236.719 248.672H216.558V270.993H236.719V248.672Z" fill="url(#paint6_linear_21_86)"/>
</g>
<path d="M46.7518 207.932C46.7518 218.235 37.9806 225.304 25.2921 225.304C21.4601 225.304 16.3505 224.793 12.5186 224.793C9.28278 224.793 2.12928 225.134 0.000427246 225.304V224.793C4.17314 223.941 6.89815 222.408 7.15353 217.469C7.49431 210.657 7.6647 204.61 7.6647 194.647C7.6647 186.727 7.5797 179.744 7.15353 171.995C6.89815 166.971 4.17314 165.353 0.000427246 164.501V163.99C3.15121 164.246 9.1124 164.416 11.667 164.416C15.414 164.416 19.2459 163.99 23.674 163.99C34.3186 163.99 43.1752 168.248 43.1752 178.211C43.1752 185.195 38.7471 190.73 30.9975 192.773C41.4722 193.795 46.7518 199.927 46.7518 207.932ZM21.7151 166.885C20.6082 166.885 19.5863 166.97 18.3086 167.311C17.9678 178.296 17.8828 184.513 17.8828 191.496C19.4155 191.751 20.6928 191.837 21.8001 191.837C29.4644 191.837 33.1259 185.535 33.1259 179.233C33.1263 172.761 29.209 166.885 21.7151 166.885ZM36.7029 209.464C36.7029 200.012 30.8271 194.732 21.9705 194.732C20.7782 194.732 19.3305 194.817 17.8828 195.073C17.8828 208.102 17.8828 211.168 18.0532 215.17C18.394 220.621 21.9705 222.494 25.8024 222.494C33.0413 222.493 36.7029 216.788 36.7029 209.464Z" fill="#1B2735"/>
<path d="M97.0781 211.252C96.5673 215.936 96.5673 220.535 97.0781 225.389C89.8396 224.878 83.0273 224.793 77.4068 224.793C72.1272 224.793 61.5675 224.878 55.7767 225.304V224.793C60.631 223.77 62.6745 222.153 62.9298 217.214C63.3556 209.294 63.3556 204.27 63.3556 194.647C63.3556 185.79 63.3556 179.574 62.8444 171.91C62.5891 167.567 60.6306 165.523 55.6913 164.501V163.99C60.0344 164.246 64.7183 164.501 68.5503 164.501C72.4676 164.501 77.1515 164.246 81.4092 163.99V164.501C76.3849 165.523 74.5964 167.567 74.3411 171.825C73.8299 180.511 73.7449 184.769 73.7449 194.647C73.7449 204.185 73.8299 210.827 74.0857 214.574C74.4264 220.705 79.6211 221.132 84.5599 221.132C91.7984 221.132 94.8642 219.088 96.5673 211.168L97.0781 211.252Z" fill="#1B2735"/>
<path d="M132.672 164.501C127.648 165.608 125.86 167.652 125.604 171.995C125.093 180.596 125.008 184.768 125.008 194.647C125.008 204.525 125.093 208.698 125.604 217.299C125.86 221.642 127.818 223.771 132.672 224.793V225.304C128.415 225.048 123.731 224.793 119.814 224.793C115.982 224.793 111.298 225.048 106.955 225.304V224.793C111.894 223.77 113.852 221.642 114.108 217.299C114.619 209.635 114.619 203.503 114.619 194.647C114.619 185.79 114.619 179.659 114.108 171.995C113.852 167.652 111.894 165.523 106.955 164.501V163.99C111.298 164.246 115.982 164.501 119.814 164.501C123.731 164.501 128.415 164.246 132.672 163.99V164.501Z" fill="#1B2735"/>
<path d="M204.375 163.99V164.501C200.117 165.523 197.817 167.226 197.562 171.995C197.221 178.637 197.136 184.428 197.136 193.113C197.136 203.588 197.136 215.425 197.221 226.155H197.051C182.489 211.764 167.586 197.627 152.173 183.832V193.965C152.173 203.418 152.343 209.805 152.684 217.128C152.939 222.067 155.238 223.771 159.496 224.793V225.303C155.153 224.962 152.003 224.793 149.278 224.793C146.468 224.793 143.912 224.963 139.655 225.303V224.793C143.912 223.77 146.212 222.067 146.468 217.299C146.808 209.89 146.893 203.503 146.893 194.05C146.893 184.257 146.893 172.846 146.808 163.053H146.979C161.966 177.785 176.954 191.836 191.857 205.377V192.433C191.857 184.002 191.687 178.552 191.346 172.08C191.091 167.226 188.792 165.523 184.533 164.501V163.99C188.877 164.331 191.772 164.501 194.582 164.501C197.392 164.501 200.117 164.331 204.375 163.99Z" fill="#1B2735"/>
<path d="M273.265 193.54C273.265 210.572 260.747 225.304 240.309 225.304C236.477 225.304 230.686 224.793 225.577 224.793C221.744 224.793 214.677 225.049 212.037 225.304V224.793C217.316 223.686 218.764 222.239 219.105 217.555C219.36 212.786 219.53 205.973 219.53 194.732C219.53 183.832 219.36 176.593 219.105 171.825C218.849 166.801 216.805 165.438 211.952 164.501V163.99C215.017 164.246 220.127 164.501 223.363 164.501C227.961 164.501 232.475 163.99 237.584 163.99C259.555 163.99 273.265 175.657 273.265 193.54ZM261.854 195.669C261.854 181.873 255.127 167.226 236.647 167.226C234.774 167.226 232.645 167.396 230.516 167.652C229.92 179.574 229.92 186.386 229.92 195.498C229.92 205.802 229.92 210.571 230.261 214.233C230.942 220.364 235.711 221.982 241.331 221.982C255.212 221.982 261.854 209.379 261.854 195.669Z" fill="#1B2735"/>
<path d="M283.313 221.131C283.653 217.299 283.738 213.637 283.313 209.72H283.823C285.441 218.065 291.317 222.579 297.96 222.579C303.75 222.579 308.519 219.343 308.519 213.211C308.519 199.501 284.335 194.647 284.335 178.467C284.335 167.992 293.787 163.138 303.41 163.138C308.69 163.138 312.437 164.586 315.162 166.289C314.821 169.44 314.651 173.868 315.162 176.763H314.651C313.289 169.61 309.03 166.715 303.836 166.715C297.705 166.715 294.553 170.462 294.553 174.805C294.553 186.812 318.823 191.922 318.823 208.953C318.823 219.428 309.797 226.155 298.47 226.155C291.062 226.155 286.123 223.26 283.313 221.131Z" fill="#1B2735"/>
<mask id="mask7_21_86" style="mask-type:luminance" maskUnits="userSpaceOnUse" x="114" y="24" width="93" height="25">
<path d="M114.149 37.1552L206.126 48.8717V41.9181L114.149 24.7393V37.1552Z" fill="white"/>
</mask>
<g mask="url(#mask7_21_86)">
<path d="M121.37 0L212.616 26.634L198.904 73.6112L107.658 46.9772L121.37 0Z" fill="url(#paint7_linear_21_86)"/>
</g>
<mask id="mask8_21_86" style="mask-type:luminance" maskUnits="userSpaceOnUse" x="114" y="42" width="20" height="13">
<path d="M114.147 52.4896L133.235 54.3104V44.242L122.732 42.8306L114.147 52.4896Z" fill="white"/>
</mask>
<g mask="url(#mask8_21_86)">
<path d="M115.645 37.6968L136.322 43.7322L131.736 59.445L111.059 53.4092L115.645 37.6968Z" fill="url(#paint8_linear_21_86)"/>
</g>
<mask id="mask9_21_86" style="mask-type:luminance" maskUnits="userSpaceOnUse" x="135" y="44" width="72" height="17">
<path d="M135.536 54.5295L206.126 60.2992V52.6796L135.536 44.5513V54.5295Z" fill="white"/>
</mask>
<g mask="url(#mask9_21_86)">
<path d="M141.078 25.5645L210.361 45.7876L200.583 79.2862L131.3 59.0631L141.078 25.5645Z" fill="url(#paint9_linear_21_86)"/>
</g>
<mask id="mask10_21_86" style="mask-type:luminance" maskUnits="userSpaceOnUse" x="114" y="56" width="20" height="13">
<path d="M114.147 68.4349L133.235 68.7354V56.9427L122.732 56.0161L114.147 68.4349Z" fill="white"/>
</mask>
<g mask="url(#mask10_21_86)">
<path d="M115.645 50.8823L136.656 57.0151L131.736 73.8695L110.725 67.7368L115.645 50.8823Z" fill="url(#paint10_linear_21_86)"/>
</g>
<mask id="mask11_21_86" style="mask-type:luminance" maskUnits="userSpaceOnUse" x="135" y="57" width="72" height="13">
<path d="M135.536 68.7723L206.126 69.7276V62.4803L135.536 57.144V68.7723Z" fill="white"/>
</mask>
<g mask="url(#mask11_21_86)">
<path d="M141.078 38.1572L209.51 58.1321L200.583 88.7146L132.151 68.7397L141.078 38.1572Z" fill="url(#paint11_linear_21_86)"/>
</g>
<mask id="mask12_21_86" style="mask-type:luminance" maskUnits="userSpaceOnUse" x="114" y="71" width="20" height="13">
<path d="M114.147 83.4598L133.235 82.2399V71.1108L123.193 71.041L114.147 83.4598Z" fill="white"/>
</mask>
<g mask="url(#mask12_21_86)">
<path d="M115.645 65.9072L136.575 72.0161L131.736 88.5944L110.806 82.4851L115.645 65.9072Z" fill="url(#paint12_linear_21_86)"/>
</g>
<mask id="mask13_21_86" style="mask-type:luminance" maskUnits="userSpaceOnUse" x="135" y="71" width="72" height="12">
<path d="M135.536 82.0923L206.126 78.2284V71.5498L135.536 71.126V82.0923Z" fill="white"/>
</mask>
<g mask="url(#mask13_21_86)">
<path d="M141.078 52.1392L209.075 71.9872L200.583 101.079L132.586 81.2312L141.078 52.1392Z" fill="url(#paint13_linear_21_86)"/>
</g>
<mask id="mask14_21_86" style="mask-type:luminance" maskUnits="userSpaceOnUse" x="114" y="85" width="20" height="15">
<path d="M123.193 86.3725L114.147 99.5578L133.235 96.7582V85.5864L123.193 86.3725Z" fill="white"/>
</mask>
<g mask="url(#mask14_21_86)">
<path d="M115.645 80.4526L136.992 86.6836L131.736 104.692L110.389 98.4611L115.645 80.4526Z" fill="url(#paint14_linear_21_86)"/>
</g>
<mask id="mask15_21_86" style="mask-type:luminance" maskUnits="userSpaceOnUse" x="135" y="80" width="72" height="17">
<path d="M135.536 85.4059V96.4232L206.126 87.5495V80.6753L135.536 85.4059Z" fill="white"/>
</mask>
<g mask="url(#mask15_21_86)">
<path d="M141.078 61.6885L210.361 81.912L200.583 115.41L131.3 95.1871L141.078 61.6885Z" fill="url(#paint15_linear_21_86)"/>
</g>
<mask id="mask16_21_86" style="mask-type:luminance" maskUnits="userSpaceOnUse" x="114" y="99" width="20" height="17">
<path d="M123.193 101.245L114.147 115.043L133.235 110.828V99.6553L123.193 101.245Z" fill="white"/>
</mask>
<g mask="url(#mask16_21_86)">
<path d="M115.645 94.5215L137.373 100.864L131.736 120.177L110.008 113.835L115.645 94.5215Z" fill="url(#paint16_linear_21_86)"/>
</g>
<mask id="mask17_21_86" style="mask-type:luminance" maskUnits="userSpaceOnUse" x="135" y="89" width="72" height="22">
<path d="M135.536 99.2944V110.321L206.126 96.9641V89.7212L135.536 99.2944Z" fill="white"/>
</mask>
<g mask="url(#mask17_21_86)">
<path d="M141.078 70.7344L211.666 91.3386L200.583 129.308L129.995 108.704L141.078 70.7344Z" fill="url(#paint17_linear_21_86)"/>
</g>
<mask id="mask18_21_86" style="mask-type:luminance" maskUnits="userSpaceOnUse" x="114" y="114" width="20" height="17">
<path d="M122.732 117.19L114.147 130.529L133.235 124.598V114.609L122.732 117.19Z" fill="white"/>
</mask>
<g mask="url(#mask18_21_86)">
<path d="M115.645 109.476L137.516 115.859L131.736 135.663L109.865 129.279L115.645 109.476Z" fill="url(#paint18_linear_21_86)"/>
</g>
<mask id="mask19_21_86" style="mask-type:luminance" maskUnits="userSpaceOnUse" x="135" y="99" width="72" height="25">
<path d="M135.536 114.045V123.883L206.126 105.087V99.187L135.536 114.045Z" fill="white"/>
</mask>
<g mask="url(#mask19_21_86)">
<path d="M141.078 80.2002L212.768 101.126L200.583 142.87L128.893 121.944L141.078 80.2002Z" fill="url(#paint19_linear_21_86)"/>
</g>
<mask id="mask20_21_86" style="mask-type:luminance" maskUnits="userSpaceOnUse" x="114" y="107" width="93" height="32">
<path d="M114.149 134.975V138.503L206.126 110.61V107.855L114.149 134.975Z" fill="white"/>
</mask>
<g mask="url(#mask20_21_86)">
<path d="M121.37 83.1162L214.369 110.262L198.904 163.242L105.905 136.097L121.37 83.1162Z" fill="url(#paint20_linear_21_86)"/>
</g>
</g>
<defs>
<linearGradient id="paint0_linear_21_86" x1="98.0444" y1="273.304" x2="98.0444" y2="254.043" gradientUnits="userSpaceOnUse">
<stop stop-color="#A6714D"/>
<stop offset="1" stop-color="#EDBF86"/>
</linearGradient>
<linearGradient id="paint1_linear_21_86" x1="122.404" y1="273.304" x2="122.404" y2="254.043" gradientUnits="userSpaceOnUse">
<stop stop-color="#A6714D"/>
<stop offset="1" stop-color="#EDBF86"/>
</linearGradient>
<linearGradient id="paint2_linear_21_86" x1="134.584" y1="273.304" x2="134.584" y2="254.043" gradientUnits="userSpaceOnUse">
<stop stop-color="#A6714D"/>
<stop offset="1" stop-color="#EDBF86"/>
</linearGradient>
<linearGradient id="paint3_linear_21_86" x1="151.105" y1="273.304" x2="151.105" y2="254.043" gradientUnits="userSpaceOnUse">
<stop stop-color="#A6714D"/>
<stop offset="1" stop-color="#EDBF86"/>
</linearGradient>
<linearGradient id="paint4_linear_21_86" x1="174.966" y1="273.304" x2="174.966" y2="254.043" gradientUnits="userSpaceOnUse">
<stop stop-color="#A6714D"/>
<stop offset="1" stop-color="#EDBF86"/>
</linearGradient>
<linearGradient id="paint5_linear_21_86" x1="201.867" y1="273.304" x2="201.867" y2="254.043" gradientUnits="userSpaceOnUse">
<stop stop-color="#A6714D"/>
<stop offset="1" stop-color="#EDBF86"/>
</linearGradient>
<linearGradient id="paint6_linear_21_86" x1="226.648" y1="273.304" x2="226.648" y2="254.043" gradientUnits="userSpaceOnUse">
<stop stop-color="#A6714D"/>
<stop offset="1" stop-color="#EDBF86"/>
</linearGradient>
<linearGradient id="paint7_linear_21_86" x1="108.038" y1="21.6122" x2="202.358" y2="49.1436" gradientUnits="userSpaceOnUse">
<stop stop-color="#A6714D"/>
<stop offset="1" stop-color="#EDBF86"/>
</linearGradient>
<linearGradient id="paint8_linear_21_86" x1="101.665" y1="42.1391" x2="200.815" y2="71.0799" gradientUnits="userSpaceOnUse">
<stop stop-color="#A6714D"/>
<stop offset="1" stop-color="#EDBF86"/>
</linearGradient>
<linearGradient id="paint9_linear_21_86" x1="99.4002" y1="31.5687" x2="213.945" y2="65.0034" gradientUnits="userSpaceOnUse">
<stop stop-color="#A6714D"/>
<stop offset="1" stop-color="#EDBF86"/>
</linearGradient>
<linearGradient id="paint10_linear_21_86" x1="97.9549" y1="54.8586" x2="197.104" y2="83.7994" gradientUnits="userSpaceOnUse">
<stop stop-color="#A6714D"/>
<stop offset="1" stop-color="#EDBF86"/>
</linearGradient>
<linearGradient id="paint11_linear_21_86" x1="95.8236" y1="41.5714" x2="210.592" y2="75.0712" gradientUnits="userSpaceOnUse">
<stop stop-color="#A6714D"/>
<stop offset="1" stop-color="#EDBF86"/>
</linearGradient>
<linearGradient id="paint12_linear_21_86" x1="93.9535" y1="68.5589" x2="193.103" y2="97.4998" gradientUnits="userSpaceOnUse">
<stop stop-color="#A6714D"/>
<stop offset="1" stop-color="#EDBF86"/>
</linearGradient>
<linearGradient id="paint13_linear_21_86" x1="91.5689" y1="53.4417" x2="206.735" y2="87.0577" gradientUnits="userSpaceOnUse">
<stop stop-color="#A6714D"/>
<stop offset="1" stop-color="#EDBF86"/>
</linearGradient>
<linearGradient id="paint14_linear_21_86" x1="89.8329" y1="82.6794" x2="188.982" y2="111.62" gradientUnits="userSpaceOnUse">
<stop stop-color="#A6714D"/>
<stop offset="1" stop-color="#EDBF86"/>
</linearGradient>
<linearGradient id="paint15_linear_21_86" x1="87.5558" y1="64.2293" x2="203.102" y2="97.9564" gradientUnits="userSpaceOnUse">
<stop stop-color="#A6714D"/>
<stop offset="1" stop-color="#EDBF86"/>
</linearGradient>
<linearGradient id="paint16_linear_21_86" x1="85.8581" y1="96.2965" x2="185.007" y2="125.237" gradientUnits="userSpaceOnUse">
<stop stop-color="#A6714D"/>
<stop offset="1" stop-color="#EDBF86"/>
</linearGradient>
<linearGradient id="paint17_linear_21_86" x1="83.6863" y1="74.5865" x2="199.588" y2="108.417" gradientUnits="userSpaceOnUse">
<stop stop-color="#A6714D"/>
<stop offset="1" stop-color="#EDBF86"/>
</linearGradient>
<linearGradient id="paint18_linear_21_86" x1="81.7645" y1="110.325" x2="180.914" y2="139.266" gradientUnits="userSpaceOnUse">
<stop stop-color="#A6714D"/>
<stop offset="1" stop-color="#EDBF86"/>
</linearGradient>
<linearGradient id="paint19_linear_21_86" x1="79.6466" y1="84.8962" x2="196.109" y2="118.891" gradientUnits="userSpaceOnUse">
<stop stop-color="#A6714D"/>
<stop offset="1" stop-color="#EDBF86"/>
</linearGradient>
<linearGradient id="paint20_linear_21_86" x1="79.561" y1="99.6441" x2="192.113" y2="132.497" gradientUnits="userSpaceOnUse">
<stop stop-color="#A6714D"/>
<stop offset="1" stop-color="#EDBF86"/>
</linearGradient>
<clipPath id="clip0_21_86">
<rect width="318.823" height="270.993" fill="white"/>
</clipPath>
</defs>
</svg>
