<svg width="23" height="23" viewBox="0 0 23 23" fill="none" xmlns="http://www.w3.org/2000/svg">
<path d="M21.25 0H0.972222C0.416667 0 0 0.416667 0 0.972222V21.3889C0 21.8056 0.416667 22.2222 0.972222 22.2222H11.1111V15.2778H8.33333V11.1111H11.1111V8.33333C11.1111 5.41667 12.7778 4.16667 15.2778 4.16667C16.5278 4.16667 17.7778 4.16667 18.0556 4.16667V8.33333H16.6667C15.8333 8.33333 15.2778 8.88889 15.2778 9.72222V11.1111H18.8889L18.0556 15.2778H15.2778V22.2222H21.25C21.8056 22.2222 22.2222 21.8056 22.2222 21.25V0.972222C22.2222 0.416667 21.8056 0 21.25 0Z" fill="black"/>
</svg>
