<svg width="23" height="23" viewBox="0 0 23 23" fill="none" xmlns="http://www.w3.org/2000/svg">
<path d="M11.1111 0.777832C5 0.777832 0 5.77783 0 11.8889C0 16.6112 2.91667 20.6389 7.08333 22.1667C6.94444 21.3334 6.94444 19.9445 7.08333 18.9723C7.22222 18.1389 8.33333 13.4167 8.33333 13.4167C8.33333 13.4167 8.05556 12.8612 8.05556 11.8889C8.05556 10.3612 9.02778 9.11117 10.1389 9.11117C11.1111 9.11117 11.5278 9.80561 11.5278 10.6389C11.5278 11.6112 10.9722 13.0001 10.5556 14.3889C10.2778 15.5001 11.1111 16.3334 12.2222 16.3334C14.1667 16.3334 15.6944 14.2501 15.6944 11.1945C15.6944 8.55561 13.75 6.61117 11.1111 6.61117C7.91667 6.61117 6.11111 8.97228 6.11111 11.4723C6.11111 12.4445 6.52778 13.4167 6.94444 13.9723C6.94444 14.2501 6.94444 14.3889 6.94444 14.5278C6.80556 14.9445 6.66667 15.6389 6.66667 15.7778C6.66667 15.9167 6.52778 16.0556 6.25 15.9167C4.86111 15.2223 4.02778 13.2778 4.02778 11.6112C4.02778 8.13894 6.52778 4.9445 11.3889 4.9445C15.2778 4.9445 18.1944 7.72228 18.1944 11.3334C18.1944 15.2223 15.8333 18.2778 12.3611 18.2778C11.25 18.2778 10.1389 17.7223 9.86111 17.0278C9.86111 17.0278 9.30556 19.1112 9.16667 19.6667C8.88889 20.6389 8.19444 21.8889 7.77778 22.5834C8.88889 22.8612 10 23.0001 11.1111 23.0001C17.2222 23.0001 22.2222 18.0001 22.2222 11.8889C22.2222 5.77783 17.2222 0.777832 11.1111 0.777832Z" fill="black"/>
</svg>
